<svg version="1.2" xmlns="http://www.w3.org/2000/svg" viewBox="0 0 20 20" width="20" height="20">
	<title>icon-svg</title>
	<style>
		tspan { white-space:pre } 
		.s0 { fill: #000000 } 
	</style>
	<path id="Tvar 1" class="s0" d="m0 0h5v2h-3v3h-2zm20 0v5h-2v-3h-3v-2zm0 20h-5v-2h3v-3h2zm-20 0v-5h2v3h3v2z"/>
	<path id="OCR" fill-rule="evenodd" class="s0" d="m1.6 12.5v-5q0-0.7 0.5-1 0.5-0.4 1.2-0.4h1.5q1 0 1.5 0.8 0.1 0.2 0.1 0.6v5q0 0.7-0.5 1.1-0.4 0.4-1.1 0.4h-1.5q-1.1 0-1.5-0.9-0.2-0.2-0.2-0.6zm1.9 0.4h1q0.6 0 0.6-0.5v-4.8q0-0.5-0.6-0.5h-1q-0.5 0-0.5 0.5v4.8q0 0.5 0.5 0.5zm6.1 0h0.9q0.6 0 0.6-0.5v-0.9h1.3v1q0 0.7-0.5 1.1-0.4 0.4-1.1 0.4h-1.5q-1.1 0-1.5-0.9-0.2-0.2-0.2-0.6v-5q0-0.7 0.5-1 0.5-0.4 1.2-0.4h1.5q0.7 0 1.1 0.3 0.5 0.4 0.5 1.1v1h-1.3v-0.9q0-0.5-0.6-0.5h-0.9q-0.6 0-0.6 0.5v4.8q0 0.5 0.6 0.5zm7.2-2.5l1.9 3.6h-1.6l-2.1-3.5v3.5h-1.4v-7.9h3.2q0.6 0 1.1 0.3 0.5 0.4 0.5 1.1v1.5q0 0.7-0.5 1.1-0.5 0.3-1.1 0.3zm-1.8-1h1.5q0.5 0 0.5-0.5v-1.3q0-0.5-0.5-0.5h-1.5z"/>
</svg>