<svg version="1.2" xmlns="http://www.w3.org/2000/svg" viewBox="0 0 64 64" width="64" height="64"><style>.a{fill:#fff}</style><path  d="m0 0h64v30h-64z"/><path  d="m0 34h64v30h-64z"/><path class="a" d="m6.6 59h-5.3l6.8-18.4h7.5l6.8 18.4h-5.2l-2-6 2.7 1.7h-11.1l0.3-3.2h9.7l-1.6 1.5-2.1-6-1.1-3.8h-0.3l-1.1 3.8zm26.8 0h-6.6l-6.5-18.4h5.3l3.3 10.7 1.2 4.3h0.1l1.1-4.3 3.3-10.7h5.4zm12.7 0h-4.9v-18.4h4.9zm7.8 0h-4.9v-18.4h13.1l0.1 3.6h-11.3l3-2.4v8l-3-1.6h10.5v3.7h-9.4l1.9-1.4z"/><path class="a" d="m11.3 25.4q-2.7 0-4.5-0.7-1.9-0.8-2.9-2.4-1-1.6-1.1-4.1h5.4q0 1.8 0.7 2.5 0.7 0.7 2.3 0.7 1 0 1.6-0.3 0.6-0.2 0.8-0.9 0.3-0.7 0.3-1.9v-13.7h5.5v13.4q0 2.5-0.9 4.2-0.8 1.6-2.7 2.4-1.8 0.8-4.5 0.8zm16.4-0.4h-6.2l7.6-10.2-7.5-10.2h6.3l2.6 4 2.3 3.7 2.3-3.6 2.5-4.1h6.3l-7.4 10.2 7.5 10.2h-6.3l-2.8-4.2-2.2-3.5-2.1 3.5zm33.9 0h-14.4v-20.3h5.5v19l-3.4-2.8h12.3z"/></svg>